# xmcd CD database file
#
# Track frame offsets:
#	182
#	18140
#	45670
#	64717
#	86715
#	98095
#	121975
#	141795
#	162442
#	181660
#	202405
#	217937
#
# Disc length: 3191 seconds
#
# Revision: 0
# Processed by: cddbd v1.5.2PL0 Copyright (c) Steve Scherf et al.
# Submitted via: CDex 1.51
#
DISCID=a10c750c
DTITLE=Sonya Cote - Danger - Redhead Ahead
DYEAR=1994
DGENRE=Blues
TTITLE0=Danger - Redhead Ahead
TTITLE1=Love For Sale
TTITLE2=Just Too Perfect
TTITLE3=So What Else Is New?
TTITLE4=La Vie Mondaine/Lady Is A Tramp
TTITLE5=Stripper With Two Left Feet
TTITLE6=I've Got You Under My Skin
TTITLE7=Blue City
TTITLE8=Country Mouse, City Mouse
TTITLE9=Mon Seul Amour (The Man I Love)
TTITLE10=Que Reste t'il de Nos Amours (I Wish You Love)
TTITLE11=Blues In The Night
EXTD=YEAR: 1994
EXTT0=
EXTT1=
EXTT2=
EXTT3=
EXTT4=
EXTT5=
EXTT6=
EXTT7=
EXTT8=
EXTT9=
EXTT10=
EXTT11=
PLAYORDER=
